# Blender v2.74 (sub 0) OBJ File: ''
# www.blender.org
mtllib test_off.mtl
o Cube_Cube.001
v -1.743541 -1.872933 2.764172
v -1.000000 1.000000 1.000000
v -1.000000 -1.000000 -1.000000
v -1.181336 1.157005 -1.172258
v 1.000000 -1.000000 1.000000
v 1.000000 1.000000 1.000000
v 1.000000 -1.000000 -1.000000
v 1.017509 0.585058 -0.528197
vn -0.993600 0.080200 -0.080200
vn 0.162500 0.085800 -0.983000
vn 1.000000 -0.005600 0.005600
vn 0.287100 0.287100 0.913900
vn 0.131800 -0.982500 -0.131800
vn 0.145900 0.986400 -0.075200
usemtl None
s off
f 2//1 4//1 3//1 1//1
f 4//2 8//2 7//2 3//2
f 8//3 6//3 5//3 7//3
f 6//4 2//4 1//4 5//4
f 1//5 3//5 7//5 5//5
f 6//6 8//6 4//6 2//6
